<mxfile host="65bd71144e">
    <diagram id="-A11FXGULtaDg3zjPBhM" name="Page-1">
        <mxGraphModel dx="1516" dy="881" grid="1" gridSize="10" guides="1" tooltips="1" connect="1" arrows="1" fold="1" page="1" pageScale="1" pageWidth="850" pageHeight="1100" background="none" math="0" shadow="0">
            <root>
                <mxCell id="0"/>
                <mxCell id="1" parent="0"/>
                <mxCell id="2" value="" style="edgeStyle=none;rounded=1;hachureGap=4;orthogonalLoop=1;jettySize=auto;fontFamily=Garamond;fontSize=12;endArrow=open;startSize=14;endSize=14;sourcePerimeterSpacing=8;targetPerimeterSpacing=8;labelBorderColor=none;labelBackgroundColor=default;fontColor=default;html=1;sketch=1;verticalAlign=middle;align=center;fontStyle=0;horizontal=1;" edge="1" parent="1" source="3" target="5">
                    <mxGeometry relative="1" as="geometry"/>
                </mxCell>
                <mxCell id="3" value="Start" style="ellipse;hachureGap=4;fontFamily=Garamond;fontSize=12;labelBorderColor=none;labelBackgroundColor=default;fontColor=default;whiteSpace=wrap;html=1;rounded=1;sketch=1;verticalAlign=middle;align=center;fontStyle=0;horizontal=1;" vertex="1" parent="1">
                    <mxGeometry x="365" y="10" width="120" height="40" as="geometry"/>
                </mxCell>
                <mxCell id="4" value="" style="edgeStyle=none;rounded=1;hachureGap=4;orthogonalLoop=1;jettySize=auto;html=1;labelBackgroundColor=default;labelBorderColor=none;fontFamily=Garamond;fontSize=12;fontColor=default;endArrow=open;startSize=14;endSize=14;sourcePerimeterSpacing=8;targetPerimeterSpacing=8;sketch=1;verticalAlign=middle;align=center;fontStyle=0;horizontal=1;" edge="1" parent="1" source="5" target="18">
                    <mxGeometry relative="1" as="geometry"/>
                </mxCell>
                <mxCell id="5" value="sizeArray" style="shape=parallelogram;perimeter=parallelogramPerimeter;fixedSize=1;hachureGap=4;fontFamily=Garamond;fontSize=12;labelBorderColor=none;labelBackgroundColor=default;fontColor=default;whiteSpace=wrap;html=1;rounded=1;sketch=1;verticalAlign=middle;align=center;fontStyle=0;horizontal=1;" vertex="1" parent="1">
                    <mxGeometry x="365" y="120" width="120" height="30" as="geometry"/>
                </mxCell>
                <mxCell id="6" value="" style="edgeStyle=none;rounded=1;hachureGap=4;orthogonalLoop=1;jettySize=auto;fontFamily=Garamond;fontSize=12;endArrow=open;startSize=14;endSize=14;sourcePerimeterSpacing=8;targetPerimeterSpacing=8;labelBorderColor=none;labelBackgroundColor=default;fontColor=default;html=1;sketch=1;verticalAlign=middle;align=center;fontStyle=0;horizontal=1;" edge="1" parent="1" source="7" target="11">
                    <mxGeometry relative="1" as="geometry"/>
                </mxCell>
                <mxCell id="7" value="void FillArray(arra)" style="ellipse;hachureGap=4;fontFamily=Garamond;fontSize=12;labelBorderColor=none;labelBackgroundColor=default;fontColor=default;whiteSpace=wrap;html=1;rounded=1;sketch=1;verticalAlign=middle;align=center;fontStyle=0;horizontal=1;" vertex="1" parent="1">
                    <mxGeometry x="1077.5" y="10" width="132.5" height="40" as="geometry"/>
                </mxCell>
                <mxCell id="8" value="" style="edgeStyle=none;rounded=1;hachureGap=4;orthogonalLoop=1;jettySize=auto;html=1;labelBackgroundColor=default;labelBorderColor=none;fontFamily=Garamond;fontSize=12;fontColor=default;endArrow=open;startSize=14;endSize=14;sourcePerimeterSpacing=8;targetPerimeterSpacing=8;sketch=1;verticalAlign=middle;align=center;fontStyle=0;horizontal=1;" edge="1" parent="1" source="11" target="13">
                    <mxGeometry relative="1" as="geometry"/>
                </mxCell>
                <mxCell id="9" value="yes" style="edgeLabel;html=1;align=center;verticalAlign=middle;resizable=0;points=[];fontSize=12;fontFamily=Garamond;fontColor=default;rounded=1;sketch=1;fontStyle=0;horizontal=1;" connectable="0" vertex="1" parent="8">
                    <mxGeometry x="-0.2703" y="-3" relative="1" as="geometry">
                        <mxPoint as="offset"/>
                    </mxGeometry>
                </mxCell>
                <mxCell id="10" value="no" style="edgeStyle=none;rounded=1;hachureGap=4;orthogonalLoop=1;jettySize=auto;html=1;labelBackgroundColor=default;labelBorderColor=none;fontFamily=Garamond;fontSize=12;fontColor=default;endArrow=open;startSize=14;endSize=14;sourcePerimeterSpacing=8;targetPerimeterSpacing=8;sketch=1;verticalAlign=middle;align=center;fontStyle=0;horizontal=1;" edge="1" parent="1" source="11" target="14">
                    <mxGeometry relative="1" as="geometry">
                        <Array as="points">
                            <mxPoint x="990" y="145"/>
                            <mxPoint x="990" y="220"/>
                            <mxPoint x="990" y="310"/>
                            <mxPoint x="1150" y="310"/>
                        </Array>
                    </mxGeometry>
                </mxCell>
                <mxCell id="11" value="for(column = 0; column &amp;lt; fill.Length; fill++)" style="shape=hexagon;perimeter=hexagonPerimeter2;fixedSize=1;hachureGap=4;fontFamily=Garamond;fontSize=12;labelBorderColor=none;labelBackgroundColor=default;fontColor=default;whiteSpace=wrap;html=1;rounded=1;sketch=1;verticalAlign=middle;align=center;fontStyle=0;horizontal=1;" vertex="1" parent="1">
                    <mxGeometry x="1023.13" y="130" width="241.25" height="30" as="geometry"/>
                </mxCell>
                <mxCell id="12" style="edgeStyle=none;rounded=1;hachureGap=4;orthogonalLoop=1;jettySize=auto;html=1;entryX=1;entryY=0.5;entryDx=0;entryDy=0;labelBackgroundColor=default;labelBorderColor=none;fontFamily=Garamond;fontSize=12;fontColor=default;endArrow=open;startSize=14;endSize=14;sourcePerimeterSpacing=8;targetPerimeterSpacing=8;sketch=1;verticalAlign=middle;align=center;fontStyle=0;horizontal=1;" edge="1" parent="1" source="13" target="11">
                    <mxGeometry relative="1" as="geometry">
                        <Array as="points">
                            <mxPoint x="1350" y="265"/>
                            <mxPoint x="1350" y="145"/>
                        </Array>
                    </mxGeometry>
                </mxCell>
                <mxCell id="13" value="fill[column] = Random (-10, 10)" style="whiteSpace=wrap;html=1;labelBackgroundColor=default;labelBorderColor=none;hachureGap=4;fontFamily=Garamond;fontSize=12;fontColor=default;rounded=1;sketch=1;verticalAlign=middle;align=center;fontStyle=0;horizontal=1;" vertex="1" parent="1">
                    <mxGeometry x="1057.2" y="250" width="173.12" height="30" as="geometry"/>
                </mxCell>
                <mxCell id="14" value="End" style="ellipse;whiteSpace=wrap;html=1;labelBackgroundColor=default;labelBorderColor=none;hachureGap=4;fontFamily=Garamond;fontSize=12;fontColor=default;rounded=1;sketch=1;verticalAlign=middle;align=center;fontStyle=0;horizontal=1;" vertex="1" parent="1">
                    <mxGeometry x="1090" y="440" width="120" height="30" as="geometry"/>
                </mxCell>
                <mxCell id="15" value="" style="edgeStyle=none;rounded=1;hachureGap=4;orthogonalLoop=1;jettySize=auto;html=1;labelBackgroundColor=default;labelBorderColor=none;fontFamily=Garamond;fontSize=12;fontColor=default;endArrow=open;startSize=14;endSize=14;sourcePerimeterSpacing=8;targetPerimeterSpacing=8;sketch=1;verticalAlign=middle;align=center;fontStyle=0;horizontal=1;" edge="1" parent="1" source="16" target="20">
                    <mxGeometry relative="1" as="geometry"/>
                </mxCell>
                <mxCell id="16" value="int[] MrEven(array, many)" style="ellipse;whiteSpace=wrap;html=1;labelBackgroundColor=default;labelBorderColor=none;hachureGap=4;fontFamily=Garamond;fontSize=12;fontColor=default;rounded=1;sketch=1;verticalAlign=middle;align=center;fontStyle=0;horizontal=1;" vertex="1" parent="1">
                    <mxGeometry x="2920" y="10" width="160" height="40" as="geometry"/>
                </mxCell>
                <mxCell id="17" value="" style="edgeStyle=none;rounded=1;hachureGap=4;orthogonalLoop=1;jettySize=auto;html=1;labelBackgroundColor=default;labelBorderColor=none;fontFamily=Garamond;fontSize=12;fontColor=default;endArrow=open;startSize=14;endSize=14;sourcePerimeterSpacing=8;targetPerimeterSpacing=8;sketch=1;verticalAlign=middle;align=center;fontStyle=0;horizontal=1;" edge="1" parent="1" source="18" target="52">
                    <mxGeometry relative="1" as="geometry"/>
                </mxCell>
                <mxCell id="18" value="array = [sizeArray]" style="whiteSpace=wrap;html=1;labelBackgroundColor=default;labelBorderColor=none;hachureGap=4;fontFamily=Garamond;fontSize=12;fontColor=default;rounded=1;sketch=1;verticalAlign=middle;align=center;fontStyle=0;horizontal=1;" vertex="1" parent="1">
                    <mxGeometry x="365" y="200" width="120" height="30" as="geometry"/>
                </mxCell>
                <mxCell id="19" value="" style="edgeStyle=none;rounded=1;hachureGap=4;orthogonalLoop=1;jettySize=auto;html=1;fontFamily=Architects Daughter;fontSource=https%3A%2F%2Ffonts.googleapis.com%2Fcss%3Ffamily%3DArchitects%2BDaughter;fontSize=12;endArrow=open;startSize=14;endSize=14;sourcePerimeterSpacing=8;targetPerimeterSpacing=8;sketch=1;verticalAlign=middle;align=center;fontStyle=0;horizontal=1;" edge="1" parent="1" source="20" target="63">
                    <mxGeometry relative="1" as="geometry"/>
                </mxCell>
                <mxCell id="20" value="newArray = [many]" style="rounded=1;whiteSpace=wrap;html=1;labelBackgroundColor=default;labelBorderColor=none;hachureGap=4;fontFamily=Garamond;fontSize=12;fontColor=default;sketch=1;verticalAlign=middle;align=center;fontStyle=0;horizontal=1;" vertex="1" parent="1">
                    <mxGeometry x="2940" y="137.5" width="120" height="30" as="geometry"/>
                </mxCell>
                <mxCell id="21" value="" style="edgeStyle=none;rounded=1;hachureGap=4;orthogonalLoop=1;jettySize=auto;html=1;labelBackgroundColor=default;labelBorderColor=none;fontFamily=Garamond;fontSize=12;fontColor=default;endArrow=open;startSize=14;endSize=14;sourcePerimeterSpacing=8;targetPerimeterSpacing=8;sketch=1;verticalAlign=middle;align=center;fontStyle=0;horizontal=1;" edge="1" parent="1" source="22" target="31">
                    <mxGeometry relative="1" as="geometry"/>
                </mxCell>
                <mxCell id="22" value="int HowManyEver(even)" style="ellipse;whiteSpace=wrap;html=1;labelBackgroundColor=default;labelBorderColor=none;hachureGap=4;fontFamily=Garamond;fontSize=12;fontColor=default;rounded=1;sketch=1;verticalAlign=middle;align=center;fontStyle=0;horizontal=1;" vertex="1" parent="1">
                    <mxGeometry x="2070" y="10" width="140" height="40" as="geometry"/>
                </mxCell>
                <mxCell id="23" value="yes" style="edgeStyle=none;rounded=1;hachureGap=4;orthogonalLoop=1;jettySize=auto;html=1;labelBackgroundColor=default;labelBorderColor=none;fontFamily=Garamond;fontSize=12;fontColor=default;endArrow=open;startSize=14;endSize=14;sourcePerimeterSpacing=8;targetPerimeterSpacing=8;sketch=1;verticalAlign=middle;align=center;fontStyle=0;horizontal=1;" edge="1" parent="1" source="25" target="27">
                    <mxGeometry relative="1" as="geometry"/>
                </mxCell>
                <mxCell id="24" value="no" style="edgeStyle=none;rounded=1;hachureGap=4;orthogonalLoop=1;jettySize=auto;html=1;labelBackgroundColor=default;labelBorderColor=none;fontFamily=Garamond;fontSize=12;fontColor=default;endArrow=open;startSize=14;endSize=14;sourcePerimeterSpacing=8;targetPerimeterSpacing=8;sketch=1;verticalAlign=middle;align=center;fontStyle=0;horizontal=1;" edge="1" parent="1" source="25" target="32">
                    <mxGeometry relative="1" as="geometry">
                        <Array as="points">
                            <mxPoint x="1920" y="215"/>
                            <mxPoint x="1920" y="550"/>
                        </Array>
                    </mxGeometry>
                </mxCell>
                <mxCell id="25" value="for(column = 0; column &amp;lt; even.Length; column++)" style="shape=hexagon;perimeter=hexagonPerimeter2;whiteSpace=wrap;html=1;fixedSize=1;labelBackgroundColor=default;labelBorderColor=none;hachureGap=4;fontFamily=Garamond;fontSize=12;fontColor=default;rounded=1;sketch=1;verticalAlign=middle;align=center;fontStyle=0;horizontal=1;" vertex="1" parent="1">
                    <mxGeometry x="2000" y="200" width="280" height="30" as="geometry"/>
                </mxCell>
                <mxCell id="26" value="yes" style="edgeStyle=none;rounded=1;hachureGap=4;orthogonalLoop=1;jettySize=auto;html=1;labelBackgroundColor=default;labelBorderColor=none;fontFamily=Garamond;fontSize=12;fontColor=default;endArrow=open;startSize=14;endSize=14;sourcePerimeterSpacing=8;targetPerimeterSpacing=8;sketch=1;verticalAlign=middle;align=center;fontStyle=0;horizontal=1;" edge="1" parent="1" source="27" target="29">
                    <mxGeometry relative="1" as="geometry"/>
                </mxCell>
                <mxCell id="66" value="no" style="edgeStyle=none;rounded=1;sketch=1;hachureGap=4;orthogonalLoop=1;jettySize=auto;html=1;entryX=1;entryY=0.5;entryDx=0;entryDy=0;fontFamily=Architects Daughter;fontSource=https%3A%2F%2Ffonts.googleapis.com%2Fcss%3Ffamily%3DArchitects%2BDaughter;fontSize=12;endArrow=open;startSize=14;endSize=14;sourcePerimeterSpacing=8;targetPerimeterSpacing=8;verticalAlign=middle;align=center;fontStyle=0;horizontal=1;" edge="1" parent="1" source="27" target="25">
                    <mxGeometry relative="1" as="geometry">
                        <Array as="points">
                            <mxPoint x="2330" y="320"/>
                            <mxPoint x="2330" y="215"/>
                        </Array>
                    </mxGeometry>
                </mxCell>
                <mxCell id="27" value="if(0 == even % 2)" style="rhombus;whiteSpace=wrap;html=1;labelBackgroundColor=default;labelBorderColor=none;hachureGap=4;fontFamily=Garamond;fontSize=12;fontColor=default;rounded=1;sketch=1;verticalAlign=middle;align=center;fontStyle=0;horizontal=1;" vertex="1" parent="1">
                    <mxGeometry x="2080" y="290" width="120" height="60" as="geometry"/>
                </mxCell>
                <mxCell id="68" style="edgeStyle=none;rounded=1;sketch=1;hachureGap=4;orthogonalLoop=1;jettySize=auto;html=1;fontFamily=Architects Daughter;fontSource=https%3A%2F%2Ffonts.googleapis.com%2Fcss%3Ffamily%3DArchitects%2BDaughter;fontSize=12;endArrow=open;startSize=14;endSize=14;sourcePerimeterSpacing=8;targetPerimeterSpacing=8;verticalAlign=middle;align=center;fontStyle=0;horizontal=1;" edge="1" parent="1" source="29">
                    <mxGeometry relative="1" as="geometry">
                        <mxPoint x="2300" y="320" as="targetPoint"/>
                        <Array as="points">
                            <mxPoint x="2300" y="435"/>
                        </Array>
                    </mxGeometry>
                </mxCell>
                <mxCell id="29" value="howEven++" style="whiteSpace=wrap;html=1;labelBackgroundColor=default;labelBorderColor=none;hachureGap=4;fontFamily=Garamond;fontSize=12;fontColor=default;rounded=1;sketch=1;verticalAlign=middle;align=center;fontStyle=0;horizontal=1;" vertex="1" parent="1">
                    <mxGeometry x="2070" y="420" width="140" height="30" as="geometry"/>
                </mxCell>
                <mxCell id="30" style="edgeStyle=none;rounded=1;hachureGap=4;orthogonalLoop=1;jettySize=auto;html=1;entryX=0.5;entryY=0;entryDx=0;entryDy=0;labelBackgroundColor=default;labelBorderColor=none;fontFamily=Garamond;fontSize=12;fontColor=default;endArrow=open;startSize=14;endSize=14;sourcePerimeterSpacing=8;targetPerimeterSpacing=8;sketch=1;verticalAlign=middle;align=center;fontStyle=0;horizontal=1;" edge="1" parent="1" source="31" target="25">
                    <mxGeometry relative="1" as="geometry"/>
                </mxCell>
                <mxCell id="31" value="howEven = 0" style="whiteSpace=wrap;html=1;labelBackgroundColor=default;labelBorderColor=none;hachureGap=4;fontFamily=Garamond;fontSize=12;fontColor=default;rounded=1;sketch=1;verticalAlign=middle;align=center;fontStyle=0;horizontal=1;" vertex="1" parent="1">
                    <mxGeometry x="2085" y="122.5" width="110" height="25" as="geometry"/>
                </mxCell>
                <mxCell id="32" value="return howEven" style="ellipse;whiteSpace=wrap;html=1;labelBackgroundColor=default;labelBorderColor=none;hachureGap=4;fontFamily=Garamond;fontSize=12;fontColor=default;rounded=1;sketch=1;verticalAlign=middle;align=center;fontStyle=0;horizontal=1;" vertex="1" parent="1">
                    <mxGeometry x="2080" y="535" width="120" height="30" as="geometry"/>
                </mxCell>
                <mxCell id="33" value="yes" style="edgeStyle=none;rounded=1;hachureGap=4;orthogonalLoop=1;jettySize=auto;html=1;labelBackgroundColor=default;labelBorderColor=none;fontFamily=Garamond;fontSize=12;fontColor=default;endArrow=open;startSize=14;endSize=14;sourcePerimeterSpacing=8;targetPerimeterSpacing=8;sketch=1;verticalAlign=middle;align=center;fontStyle=0;horizontal=1;" edge="1" parent="1" source="35" target="41">
                    <mxGeometry relative="1" as="geometry"/>
                </mxCell>
                <mxCell id="34" value="no" style="edgeStyle=none;rounded=1;hachureGap=4;orthogonalLoop=1;jettySize=auto;html=1;labelBackgroundColor=default;labelBorderColor=none;fontFamily=Garamond;fontSize=12;fontColor=default;endArrow=open;startSize=14;endSize=14;sourcePerimeterSpacing=8;targetPerimeterSpacing=8;sketch=1;verticalAlign=middle;align=center;fontStyle=0;horizontal=1;" edge="1" parent="1" source="35" target="42">
                    <mxGeometry relative="1" as="geometry">
                        <Array as="points">
                            <mxPoint x="2790" y="365"/>
                            <mxPoint x="2790" y="883"/>
                        </Array>
                    </mxGeometry>
                </mxCell>
                <mxCell id="35" value="for(column = 0; column &amp;lt; array.Length; column++)" style="shape=hexagon;perimeter=hexagonPerimeter2;whiteSpace=wrap;html=1;fixedSize=1;labelBackgroundColor=default;labelBorderColor=none;hachureGap=4;fontFamily=Garamond;fontSize=12;fontColor=default;rounded=1;sketch=1;verticalAlign=middle;align=center;fontStyle=0;horizontal=1;" vertex="1" parent="1">
                    <mxGeometry x="2867.5" y="350" width="265" height="30" as="geometry"/>
                </mxCell>
                <mxCell id="36" value="" style="edgeStyle=none;rounded=1;hachureGap=4;orthogonalLoop=1;jettySize=auto;html=1;fontFamily=Architects Daughter;fontSource=https%3A%2F%2Ffonts.googleapis.com%2Fcss%3Ffamily%3DArchitects%2BDaughter;fontSize=12;endArrow=open;startSize=14;endSize=14;sourcePerimeterSpacing=8;targetPerimeterSpacing=8;sketch=1;verticalAlign=middle;align=center;fontStyle=0;horizontal=1;" edge="1" parent="1" source="37" target="65">
                    <mxGeometry relative="1" as="geometry"/>
                </mxCell>
                <mxCell id="37" value="newArray[index] = array[column]" style="whiteSpace=wrap;html=1;labelBackgroundColor=default;labelBorderColor=none;hachureGap=4;fontFamily=Garamond;fontSize=12;fontColor=default;rounded=1;sketch=1;verticalAlign=middle;align=center;fontStyle=0;horizontal=1;" vertex="1" parent="1">
                    <mxGeometry x="2920" y="640" width="160" height="40" as="geometry"/>
                </mxCell>
                <mxCell id="38" style="edgeStyle=none;rounded=1;hachureGap=4;orthogonalLoop=1;jettySize=auto;html=1;labelBackgroundColor=default;labelBorderColor=none;fontFamily=Garamond;fontSize=12;fontColor=default;endArrow=open;startSize=14;endSize=14;sourcePerimeterSpacing=8;targetPerimeterSpacing=8;sketch=1;verticalAlign=middle;align=center;fontStyle=0;horizontal=1;" edge="1" parent="1" source="41">
                    <mxGeometry relative="1" as="geometry">
                        <mxPoint x="3017" y="535" as="targetPoint"/>
                    </mxGeometry>
                </mxCell>
                <mxCell id="39" value="no" style="edgeStyle=none;rounded=1;hachureGap=4;orthogonalLoop=1;jettySize=auto;html=1;entryX=1;entryY=0.5;entryDx=0;entryDy=0;labelBackgroundColor=default;labelBorderColor=none;fontFamily=Garamond;fontSize=12;fontColor=default;endArrow=open;startSize=14;endSize=14;sourcePerimeterSpacing=8;targetPerimeterSpacing=8;sketch=1;verticalAlign=middle;align=center;fontStyle=0;horizontal=1;" edge="1" parent="1" source="41" target="35">
                    <mxGeometry relative="1" as="geometry">
                        <Array as="points">
                            <mxPoint x="3180" y="515"/>
                            <mxPoint x="3180" y="365"/>
                        </Array>
                    </mxGeometry>
                </mxCell>
                <mxCell id="40" value="yes" style="edgeStyle=none;rounded=1;hachureGap=4;orthogonalLoop=1;jettySize=auto;html=1;fontFamily=Architects Daughter;fontSource=https%3A%2F%2Ffonts.googleapis.com%2Fcss%3Ffamily%3DArchitects%2BDaughter;fontSize=12;endArrow=open;startSize=14;endSize=14;sourcePerimeterSpacing=8;targetPerimeterSpacing=8;sketch=1;verticalAlign=middle;align=center;fontStyle=0;horizontal=1;" edge="1" parent="1" source="41" target="37">
                    <mxGeometry relative="1" as="geometry"/>
                </mxCell>
                <mxCell id="41" value="if(0 == array[column] % 2)" style="rhombus;whiteSpace=wrap;html=1;labelBackgroundColor=default;labelBorderColor=none;hachureGap=4;fontFamily=Garamond;fontSize=12;fontColor=default;rounded=1;sketch=1;verticalAlign=middle;align=center;fontStyle=0;horizontal=1;" vertex="1" parent="1">
                    <mxGeometry x="2925" y="480" width="150" height="70" as="geometry"/>
                </mxCell>
                <mxCell id="42" value="return newArray" style="ellipse;whiteSpace=wrap;html=1;labelBackgroundColor=default;labelBorderColor=none;hachureGap=4;fontFamily=Garamond;fontSize=12;fontColor=default;rounded=1;sketch=1;verticalAlign=middle;align=center;fontStyle=0;horizontal=1;" vertex="1" parent="1">
                    <mxGeometry x="2940" y="870" width="120" height="25" as="geometry"/>
                </mxCell>
                <mxCell id="43" value="" style="edgeStyle=none;rounded=1;hachureGap=4;orthogonalLoop=1;jettySize=auto;html=1;labelBackgroundColor=default;labelBorderColor=none;fontFamily=Garamond;fontSize=12;fontColor=default;endArrow=open;startSize=14;endSize=14;sourcePerimeterSpacing=8;targetPerimeterSpacing=8;sketch=1;verticalAlign=middle;align=center;fontStyle=0;horizontal=1;" edge="1" parent="1" source="44" target="47">
                    <mxGeometry relative="1" as="geometry"/>
                </mxCell>
                <mxCell id="44" value="void PrintArray(print)" style="ellipse;whiteSpace=wrap;html=1;labelBackgroundColor=default;labelBorderColor=none;hachureGap=4;fontFamily=Garamond;fontSize=12;fontColor=default;rounded=1;sketch=1;verticalAlign=middle;align=center;fontStyle=0;horizontal=1;" vertex="1" parent="1">
                    <mxGeometry x="3765" y="10" width="120" height="30" as="geometry"/>
                </mxCell>
                <mxCell id="45" value="yes" style="edgeStyle=none;rounded=1;hachureGap=4;orthogonalLoop=1;jettySize=auto;html=1;labelBackgroundColor=default;labelBorderColor=none;fontFamily=Garamond;fontSize=12;fontColor=default;endArrow=open;startSize=14;endSize=14;sourcePerimeterSpacing=8;targetPerimeterSpacing=8;sketch=1;verticalAlign=middle;align=center;fontStyle=0;horizontal=1;" edge="1" parent="1" source="47" target="49">
                    <mxGeometry relative="1" as="geometry"/>
                </mxCell>
                <mxCell id="46" value="no" style="edgeStyle=none;rounded=1;hachureGap=4;orthogonalLoop=1;jettySize=auto;html=1;labelBackgroundColor=default;labelBorderColor=none;fontFamily=Garamond;fontSize=12;fontColor=default;endArrow=open;startSize=14;endSize=14;sourcePerimeterSpacing=8;targetPerimeterSpacing=8;sketch=1;verticalAlign=middle;align=center;fontStyle=0;horizontal=1;" edge="1" parent="1" source="47" target="50">
                    <mxGeometry relative="1" as="geometry">
                        <Array as="points">
                            <mxPoint x="3660" y="124"/>
                            <mxPoint x="3660" y="420"/>
                        </Array>
                    </mxGeometry>
                </mxCell>
                <mxCell id="47" value="for(column = 0; column &amp;lt; print.Length; column++)" style="shape=hexagon;perimeter=hexagonPerimeter2;whiteSpace=wrap;html=1;fixedSize=1;labelBackgroundColor=default;labelBorderColor=none;hachureGap=4;fontFamily=Garamond;fontSize=12;fontColor=default;rounded=1;sketch=1;verticalAlign=middle;align=center;fontStyle=0;horizontal=1;" vertex="1" parent="1">
                    <mxGeometry x="3698" y="110" width="255" height="27.5" as="geometry"/>
                </mxCell>
                <mxCell id="48" style="edgeStyle=none;rounded=1;hachureGap=4;orthogonalLoop=1;jettySize=auto;html=1;entryX=1;entryY=0.5;entryDx=0;entryDy=0;labelBackgroundColor=default;labelBorderColor=none;fontFamily=Garamond;fontSize=12;fontColor=default;endArrow=open;startSize=14;endSize=14;sourcePerimeterSpacing=8;targetPerimeterSpacing=8;sketch=1;verticalAlign=middle;align=center;fontStyle=0;horizontal=1;" edge="1" parent="1" source="49" target="47">
                    <mxGeometry relative="1" as="geometry">
                        <Array as="points">
                            <mxPoint x="4020" y="284"/>
                            <mxPoint x="4020" y="124"/>
                        </Array>
                    </mxGeometry>
                </mxCell>
                <mxCell id="49" value="Print print[column]" style="shape=document;whiteSpace=wrap;html=1;boundedLbl=1;labelBackgroundColor=default;labelBorderColor=none;hachureGap=4;fontFamily=Garamond;fontSize=12;fontColor=default;rounded=1;sketch=1;verticalAlign=middle;align=center;fontStyle=0;horizontal=1;" vertex="1" parent="1">
                    <mxGeometry x="3765.5" y="257.5" width="114.5" height="52.5" as="geometry"/>
                </mxCell>
                <mxCell id="50" value="End" style="ellipse;whiteSpace=wrap;html=1;labelBackgroundColor=default;labelBorderColor=none;hachureGap=4;fontFamily=Garamond;fontSize=12;fontColor=default;rounded=1;sketch=1;verticalAlign=middle;align=center;fontStyle=0;horizontal=1;" vertex="1" parent="1">
                    <mxGeometry x="3762.75" y="405" width="120" height="30" as="geometry"/>
                </mxCell>
                <mxCell id="51" value="" style="edgeStyle=none;rounded=1;hachureGap=4;orthogonalLoop=1;jettySize=auto;html=1;labelBackgroundColor=default;labelBorderColor=none;fontFamily=Garamond;fontSize=12;fontColor=default;endArrow=open;startSize=14;endSize=14;sourcePerimeterSpacing=8;targetPerimeterSpacing=8;sketch=1;verticalAlign=middle;align=center;fontStyle=0;horizontal=1;" edge="1" parent="1" source="52" target="60">
                    <mxGeometry relative="1" as="geometry"/>
                </mxCell>
                <mxCell id="52" value="&lt;span style=&quot;font-size: 12px;&quot;&gt;FillArray(array)&lt;/span&gt;" style="shape=process;whiteSpace=wrap;html=1;backgroundOutline=1;labelBackgroundColor=default;labelBorderColor=none;hachureGap=4;fontFamily=Garamond;fontSize=12;fontColor=default;rounded=1;sketch=1;verticalAlign=middle;align=center;fontStyle=0;horizontal=1;" vertex="1" parent="1">
                    <mxGeometry x="365" y="310" width="120" height="30" as="geometry"/>
                </mxCell>
                <mxCell id="53" value="" style="edgeStyle=none;rounded=1;hachureGap=4;orthogonalLoop=1;jettySize=auto;html=1;labelBackgroundColor=default;labelBorderColor=none;fontFamily=Garamond;fontSize=12;fontColor=default;endArrow=open;startSize=14;endSize=14;sourcePerimeterSpacing=8;targetPerimeterSpacing=8;sketch=1;verticalAlign=middle;align=center;fontStyle=0;horizontal=1;" edge="1" parent="1" source="54" target="56">
                    <mxGeometry relative="1" as="geometry"/>
                </mxCell>
                <mxCell id="54" value="&lt;span style=&quot;font-size: 12px;&quot;&gt;many = HowManyEven(array)&lt;/span&gt;" style="shape=process;whiteSpace=wrap;html=1;backgroundOutline=1;labelBackgroundColor=default;labelBorderColor=none;hachureGap=4;fontFamily=Garamond;fontSize=12;fontColor=default;rounded=1;sketch=1;verticalAlign=middle;align=center;fontStyle=0;horizontal=1;" vertex="1" parent="1">
                    <mxGeometry x="325" y="520" width="200" height="30" as="geometry"/>
                </mxCell>
                <mxCell id="55" value="" style="edgeStyle=none;rounded=1;hachureGap=4;orthogonalLoop=1;jettySize=auto;html=1;labelBackgroundColor=default;labelBorderColor=none;fontFamily=Garamond;fontSize=12;fontColor=default;endArrow=open;startSize=14;endSize=14;sourcePerimeterSpacing=8;targetPerimeterSpacing=8;sketch=1;verticalAlign=middle;align=center;fontStyle=0;horizontal=1;" edge="1" parent="1" source="56" target="58">
                    <mxGeometry relative="1" as="geometry"/>
                </mxCell>
                <mxCell id="56" value="&lt;span style=&quot;font-size: 12px;&quot;&gt;newArray = MrEven(array, many)&lt;/span&gt;" style="shape=process;whiteSpace=wrap;html=1;backgroundOutline=1;labelBackgroundColor=default;labelBorderColor=none;hachureGap=4;fontFamily=Garamond;fontSize=12;fontColor=default;rounded=1;sketch=1;verticalAlign=middle;align=center;fontStyle=0;horizontal=1;" vertex="1" parent="1">
                    <mxGeometry x="320" y="620" width="210" height="20" as="geometry"/>
                </mxCell>
                <mxCell id="57" value="" style="edgeStyle=none;rounded=1;hachureGap=4;orthogonalLoop=1;jettySize=auto;html=1;labelBackgroundColor=default;labelBorderColor=none;fontFamily=Garamond;fontSize=12;fontColor=default;endArrow=open;startSize=14;endSize=14;sourcePerimeterSpacing=8;targetPerimeterSpacing=8;sketch=1;verticalAlign=middle;align=center;fontStyle=0;horizontal=1;" edge="1" parent="1" source="58" target="61">
                    <mxGeometry relative="1" as="geometry"/>
                </mxCell>
                <mxCell id="58" value="PrintArray(newArray)" style="shape=process;whiteSpace=wrap;html=1;backgroundOutline=1;labelBackgroundColor=default;labelBorderColor=none;hachureGap=4;fontFamily=Garamond;fontSize=12;fontColor=default;rounded=1;sketch=1;verticalAlign=middle;align=center;fontStyle=0;horizontal=1;" vertex="1" parent="1">
                    <mxGeometry x="357.5" y="730" width="135" height="30" as="geometry"/>
                </mxCell>
                <mxCell id="59" value="" style="edgeStyle=none;rounded=1;hachureGap=4;orthogonalLoop=1;jettySize=auto;html=1;labelBackgroundColor=default;labelBorderColor=none;fontFamily=Garamond;fontSize=12;fontColor=default;endArrow=open;startSize=14;endSize=14;sourcePerimeterSpacing=8;targetPerimeterSpacing=8;sketch=1;verticalAlign=middle;align=center;fontStyle=0;horizontal=1;" edge="1" parent="1" source="60" target="54">
                    <mxGeometry relative="1" as="geometry"/>
                </mxCell>
                <mxCell id="60" value="PrintArray(array)" style="shape=process;whiteSpace=wrap;html=1;backgroundOutline=1;labelBackgroundColor=default;labelBorderColor=none;hachureGap=4;fontFamily=Garamond;fontSize=12;fontColor=default;rounded=1;sketch=1;verticalAlign=middle;align=center;fontStyle=0;horizontal=1;" vertex="1" parent="1">
                    <mxGeometry x="365" y="405" width="120" height="30" as="geometry"/>
                </mxCell>
                <mxCell id="61" value="End" style="ellipse;whiteSpace=wrap;html=1;labelBackgroundColor=default;labelBorderColor=none;hachureGap=4;fontFamily=Garamond;fontSize=12;fontColor=default;rounded=1;sketch=1;verticalAlign=middle;align=center;fontStyle=0;horizontal=1;" vertex="1" parent="1">
                    <mxGeometry x="365" y="880" width="120" height="30" as="geometry"/>
                </mxCell>
                <mxCell id="62" value="" style="edgeStyle=none;rounded=1;hachureGap=4;orthogonalLoop=1;jettySize=auto;html=1;fontFamily=Architects Daughter;fontSource=https%3A%2F%2Ffonts.googleapis.com%2Fcss%3Ffamily%3DArchitects%2BDaughter;fontSize=12;endArrow=open;startSize=14;endSize=14;sourcePerimeterSpacing=8;targetPerimeterSpacing=8;sketch=1;verticalAlign=middle;align=center;fontStyle=0;horizontal=1;" edge="1" parent="1" source="63" target="35">
                    <mxGeometry relative="1" as="geometry"/>
                </mxCell>
                <mxCell id="63" value="index = 0;" style="whiteSpace=wrap;html=1;hachureGap=4;fontFamily=Architects Daughter;fontSource=https%3A%2F%2Ffonts.googleapis.com%2Fcss%3Ffamily%3DArchitects%2BDaughter;fontSize=12;rounded=1;sketch=1;verticalAlign=middle;align=center;fontStyle=0;horizontal=1;" vertex="1" parent="1">
                    <mxGeometry x="2940" y="230" width="120" height="32.5" as="geometry"/>
                </mxCell>
                <mxCell id="64" style="edgeStyle=none;rounded=1;hachureGap=4;orthogonalLoop=1;jettySize=auto;html=1;fontFamily=Architects Daughter;fontSource=https%3A%2F%2Ffonts.googleapis.com%2Fcss%3Ffamily%3DArchitects%2BDaughter;fontSize=12;endArrow=open;startSize=14;endSize=14;sourcePerimeterSpacing=8;targetPerimeterSpacing=8;sketch=1;verticalAlign=middle;align=center;fontStyle=0;horizontal=1;" edge="1" parent="1" source="65">
                    <mxGeometry relative="1" as="geometry">
                        <mxPoint x="3180" y="430" as="targetPoint"/>
                        <Array as="points">
                            <mxPoint x="3300" y="750"/>
                            <mxPoint x="3300" y="430"/>
                        </Array>
                    </mxGeometry>
                </mxCell>
                <mxCell id="65" value="index++" style="whiteSpace=wrap;html=1;hachureGap=4;fontFamily=Architects Daughter;fontSource=https%3A%2F%2Ffonts.googleapis.com%2Fcss%3Ffamily%3DArchitects%2BDaughter;fontSize=12;rounded=1;sketch=1;verticalAlign=middle;align=center;fontStyle=0;horizontal=1;" vertex="1" parent="1">
                    <mxGeometry x="2940" y="740" width="120" height="30" as="geometry"/>
                </mxCell>
                <mxCell id="71" value="Написать программу, которая из емеющегося массива целых чисел формирует массив из четных чисел." style="whiteSpace=wrap;html=1;rounded=1;sketch=1;hachureGap=4;fontFamily=Architects Daughter;fontSource=https%3A%2F%2Ffonts.googleapis.com%2Fcss%3Ffamily%3DArchitects%2BDaughter;fontSize=14;" vertex="1" parent="1">
                    <mxGeometry x="10" y="22.5" width="190" height="100" as="geometry"/>
                </mxCell>
            </root>
        </mxGraphModel>
    </diagram>
</mxfile>